<svg width="50" height="52" viewBox="0 0 50 52" fill="none" xmlns="http://www.w3.org/2000/svg">
<path d="M24.6277 33.2C28.6042 33.2 31.8277 29.9764 31.8277 26C31.8277 22.0235 28.6042 18.8 24.6277 18.8C20.6513 18.8 17.4277 22.0235 17.4277 26C17.4277 29.9764 20.6513 33.2 24.6277 33.2Z" stroke="currentColor" stroke-width="3.75"/>
<path d="M4.61466 22.7341C5.74878 23.4466 6.4785 24.6606 6.4785 25.9998C6.47847 27.3392 5.74875 28.5531 4.61466 29.2657C3.84291 29.7505 3.34568 30.1381 2.99192 30.5991C2.21694 31.6093 1.87491 32.8856 2.04109 34.1478C2.1657 35.0943 2.72482 36.0627 3.84308 37.9998C4.96136 39.9366 5.52049 40.905 6.27795 41.4862C7.28792 42.2612 8.56438 42.6032 9.82654 42.4371C10.4026 42.3613 10.9868 42.1244 11.7924 41.6986C12.9768 41.0727 14.3931 41.0478 15.5532 41.7176C16.7132 42.3874 17.3996 43.6263 17.4496 44.9648C17.4837 45.8756 17.5707 46.5001 17.7931 47.037C18.2803 48.213 19.2147 49.1475 20.3908 49.6347C21.273 50 22.3912 50 24.6277 50C26.8643 50 27.9824 50 28.8647 49.6347C30.0407 49.1475 30.9752 48.213 31.4624 47.037C31.6847 46.5001 31.7718 45.8756 31.8059 44.965C31.8558 43.6263 32.5422 42.3874 33.7024 41.7176C34.8623 41.048 36.2785 41.073 37.4627 41.6989C38.2686 42.1246 38.8528 42.3615 39.4288 42.4374C40.6909 42.6037 41.9675 42.2614 42.9774 41.4865C43.7349 40.9054 44.294 39.9368 45.4124 38C45.9102 37.1377 46.2973 36.4674 46.5844 35.9053M44.6406 29.2659C43.5066 28.5534 42.777 27.3394 42.7768 26.0002C42.7768 24.6608 43.5066 23.4466 44.6406 22.7341C45.4124 22.2493 45.9095 21.8617 46.2632 21.4006C47.0382 20.3907 47.3802 19.1142 47.2141 17.852C47.0896 16.9054 46.5304 15.937 45.412 14.0001C44.2938 12.0632 43.7346 11.0948 42.9772 10.5136C41.9672 9.73858 40.6907 9.39656 39.4285 9.56271C38.8525 9.63858 38.2684 9.87536 37.4627 10.3012C36.2783 10.9271 34.862 10.9521 33.7021 10.2823C32.5422 9.61256 31.8558 8.37368 31.8059 7.03527C31.7718 6.12445 31.6847 5.50004 31.4624 4.96311C30.9752 3.78699 30.0407 2.85255 28.8647 2.36538C27.9824 2 26.8643 2 24.6277 2C22.3912 2 21.273 2 20.3908 2.36538C19.2147 2.85255 18.2803 3.78699 17.7931 4.96311C17.5707 5.49999 17.4837 6.12435 17.4496 7.03506C17.3996 8.37358 16.7131 9.61258 15.5531 10.2823C14.3931 10.952 12.9769 10.927 11.7926 10.3011C10.9869 9.87526 10.4027 9.63846 9.82657 9.56259C8.56441 9.39644 7.28794 9.73846 6.27798 10.5134C5.52051 11.0947 4.96138 12.0631 3.8431 14C3.34527 14.8623 2.95825 15.5326 2.67104 16.0946" stroke="currentColor" stroke-width="3.75" stroke-linecap="round"/>
</svg>
