<svg width="59" height="35" viewBox="0 0 59 35" fill="none" xmlns="http://www.w3.org/2000/svg">
<path d="M3.18912 4.94087H55.6891C56.9829 4.94087 58.0329 3.89087 58.0329 2.59712C58.0329 1.30337 56.9829 0.253372 55.6891 0.253372H3.18912C1.89537 0.253372 0.845367 1.30337 0.845367 2.59712C0.845367 3.89087 1.89537 4.94087 3.18912 4.94087ZM55.6891 15.2552H3.18912C1.89537 15.2552 0.845367 16.3052 0.845367 17.599C0.845367 18.8927 1.89537 19.9427 3.18912 19.9427H55.6891C56.9829 19.9427 58.0329 18.8927 58.0329 17.599C58.0329 16.3052 56.9829 15.2552 55.6891 15.2552ZM55.6891 30.2552H3.18912C1.89537 30.2552 0.845367 31.3052 0.845367 32.599C0.845367 33.8927 1.89537 34.9427 3.18912 34.9427H55.6891C56.9829 34.9427 58.0329 33.8927 58.0329 32.599C58.0329 31.3052 56.9829 30.2552 55.6891 30.2552Z" fill="currentColor"/>
</svg>
