<svg width="60" height="60" viewBox="0 0 60 60" fill="none" xmlns="http://www.w3.org/2000/svg">
<path d="M48.8167 56.6667H11.1833C10.8113 56.6688 10.4424 56.5977 10.0978 56.4574C9.75319 56.317 9.43962 56.1101 9.17497 55.8486C8.91032 55.587 8.69978 55.2759 8.55538 54.933C8.41097 54.5901 8.33552 54.2221 8.33334 53.85V11.15C8.34323 10.7377 8.44044 10.3322 8.61856 9.96024C8.79668 9.58828 9.05166 9.25832 9.36666 8.99214C9.68167 8.72596 10.0495 8.52961 10.446 8.41605C10.8425 8.30248 11.2585 8.27429 11.6667 8.33332H15V11.6667H11.6667V53.3333H48.3333V11.6667H45V8.33332H48.75C49.1276 8.3222 49.5037 8.38672 49.856 8.52308C50.2083 8.65944 50.5298 8.86488 50.8016 9.12732C51.0734 9.38977 51.2899 9.70391 51.4385 10.0513C51.587 10.3986 51.6646 10.7722 51.6667 11.15V53.85C51.6645 54.2221 51.589 54.5901 51.4446 54.933C51.3002 55.2759 51.0897 55.587 50.825 55.8486C50.5604 56.1101 50.2468 56.317 49.9022 56.4574C49.5576 56.5977 49.1888 56.6688 48.8167 56.6667Z" fill="currentColor"/>
<path d="M27.7667 42.9333L18.8333 34C18.5624 33.6792 18.4225 33.268 18.4416 32.8486C18.4607 32.4292 18.6374 32.0324 18.9364 31.7376C19.2354 31.4429 19.6346 31.2718 20.0543 31.2586C20.474 31.2455 20.8831 31.3912 21.2 31.6667L27.7667 38.2333L42.1667 23.8333C42.4855 23.5603 42.8956 23.4176 43.3151 23.4338C43.7346 23.45 44.1325 23.6239 44.4293 23.9207C44.7261 24.2175 44.9 24.6154 44.9162 25.0349C44.9324 25.4544 44.7897 25.8645 44.5167 26.1833L27.7667 42.9333Z" fill="currentColor"/>
<path d="M43.3333 18.3333H16.6667V12.2167C16.6711 11.1881 17.0816 10.2029 17.8089 9.47557C18.5362 8.74825 19.5214 8.33771 20.55 8.33332H23.5333C23.9005 6.8993 24.7345 5.62826 25.9039 4.72059C27.0732 3.81292 28.5114 3.32025 29.9917 3.32025C31.472 3.32025 32.9101 3.81292 34.0795 4.72059C35.2488 5.62826 36.0828 6.8993 36.45 8.33332H39.4333C40.4648 8.33331 41.4543 8.74192 42.1852 9.46971C42.9161 10.1975 43.3289 11.1852 43.3333 12.2167V18.3333ZM20 15H40V12.2167C40 12.0708 39.9421 11.9309 39.8389 11.8277C39.7358 11.7246 39.5959 11.6667 39.45 11.6667H33.3333V9.99999C33.3333 9.11593 32.9821 8.26809 32.357 7.64297C31.7319 7.01785 30.8841 6.66666 30 6.66666C29.1159 6.66666 28.2681 7.01785 27.643 7.64297C27.0179 8.26809 26.6667 9.11593 26.6667 9.99999V11.6667H20.55C20.4778 11.6667 20.4063 11.6809 20.3395 11.7085C20.2728 11.7362 20.2122 11.7767 20.1611 11.8277C20.11 11.8788 20.0695 11.9395 20.0419 12.0062C20.0142 12.0729 20 12.1444 20 12.2167V15Z" fill="currentColor"/>
</svg>
